<svg id="Layer_1" data-name="Layer 1" xmlns="http://www.w3.org/2000/svg" viewBox="0 0 26.8396 24"><path d="M14.328,24a1.56906,1.56906,0,0,1-1.0376-.3919c-1.0842-.9529-2.1296-1.8483-3.0519-2.6383l-.0047-.0041a56.8769,56.8769,0,0,1-6.66359-6.2863A10.06813,10.06813,0,0,1,.9082,8.10709,8.45624,8.45624,0,0,1,3.0374,2.34871,7.20045,7.20045,0,0,1,8.40605,0,6.72936,6.72936,0,0,1,12.6231,1.46311,8.65133,8.65133,0,0,1,14.328,3.25243a8.65216,8.65216,0,0,1,1.7051-1.78932A6.72921,6.72921,0,0,1,20.2501,0a7.20091,7.20091,0,0,1,5.3687,2.34871,8.456,8.456,0,0,1,2.129,5.75838A10.067,10.067,0,0,1,25.086,14.6792a56.87463,56.87463,0,0,1-6.663,6.2861c-.9239.7912-1.9709,1.6881-3.0576,2.6432A1.5702,1.5702,0,0,1,14.328,24ZM8.40605,1.58021A5.64912,5.64912,0,0,0,4.19312,3.41975a6.879,6.879,0,0,0-1.7129,4.68734A8.47108,8.47108,0,0,0,4.7806,13.6712a55.98056,55.98056,0,0,0,6.4728,6.092l.0049.0041c.9258.793,1.9752,1.692,3.0674,2.6519,1.0988-.9618,2.1499-1.8622,3.0775-2.6564a55.98931,55.98931,0,0,0,6.4724-6.0916,8.47206,8.47206,0,0,0,2.3002-5.56411,6.87919,6.87919,0,0,0-1.7129-4.68734,5.64881,5.64881,0,0,0-4.2128-1.83954A5.19743,5.19743,0,0,0,16.9947,2.713a7.65736,7.65736,0,0,0-1.8143,2.11.98984.98984,0,0,1-1.7049,0,7.64987,7.64987,0,0,0-1.8142-2.11A5.19767,5.19767,0,0,0,8.40605,1.58021Z" transform="translate(-0.9082)"/></svg>